<svg xmlns="http://www.w3.org/2000/svg" xmlns:xlink="http://www.w3.org/1999/xlink" width="180" zoomAndPan="magnify" viewBox="0 0 135 37.5" height="50" preserveAspectRatio="xMidYMid meet" version="1.0"><defs><g/><clipPath id="8a0fc7ce3a"><path d="M 24.535156 10.609375 L 36.238281 10.609375 L 36.238281 22.066406 L 24.535156 22.066406 Z M 24.535156 10.609375 " clip-rule="nonzero"/></clipPath><clipPath id="d2a220e36f"><path d="M 22.175781 12.121094 L 34.429688 12.121094 L 34.429688 24.671875 L 22.175781 24.671875 Z M 22.175781 12.121094 " clip-rule="nonzero"/></clipPath></defs><g fill="#f1efe7" fill-opacity="1"><g transform="translate(3.049292, 23.78763)"><g><path d="M 15.390625 0 L 14.59375 -10.140625 L 14.484375 -10.140625 L 10.984375 -0.109375 L 8.65625 -0.109375 L 5.140625 -10.140625 L 5.046875 -10.140625 L 4.234375 0 L 0.328125 0 L 1.875 -17.125 L 6.015625 -17.125 L 9.8125 -7.234375 L 13.609375 -17.125 L 17.765625 -17.125 L 19.296875 0 Z M 15.390625 0 "/></g></g></g><g fill="#f1efe7" fill-opacity="1"><g transform="translate(21.607778, 23.78763)"><g/></g></g><g fill="#f1efe7" fill-opacity="1"><g transform="translate(26.194227, 23.78763)"><g/></g></g><g fill="#f1efe7" fill-opacity="1"><g transform="translate(30.780676, 23.78763)"><g/></g></g><g fill="#f1efe7" fill-opacity="1"><g transform="translate(35.370142, 23.78763)"><g><path d="M 1.25 0 L 1.25 -10.640625 L 4.921875 -10.640625 L 4.921875 -9.109375 L 4.953125 -9.109375 C 4.984375 -9.160156 5.03125 -9.226562 5.09375 -9.3125 C 5.15625 -9.394531 5.289062 -9.539062 5.5 -9.75 C 5.707031 -9.957031 5.925781 -10.144531 6.15625 -10.3125 C 6.394531 -10.476562 6.703125 -10.625 7.078125 -10.75 C 7.453125 -10.882812 7.832031 -10.953125 8.21875 -10.953125 C 8.613281 -10.953125 9.003906 -10.894531 9.390625 -10.78125 C 9.785156 -10.675781 10.070312 -10.566406 10.25 -10.453125 L 10.546875 -10.296875 L 9 -7.171875 C 8.550781 -7.566406 7.914062 -7.765625 7.09375 -7.765625 C 6.65625 -7.765625 6.273438 -7.664062 5.953125 -7.46875 C 5.640625 -7.269531 5.414062 -7.03125 5.28125 -6.75 C 5.144531 -6.476562 5.050781 -6.242188 5 -6.046875 C 4.945312 -5.859375 4.921875 -5.710938 4.921875 -5.609375 L 4.921875 0 Z M 1.25 0 "/></g></g></g><g fill="#f1efe7" fill-opacity="1"><g transform="translate(44.626308, 23.78763)"><g><path d="M 12.1875 -9.328125 C 13.1875 -8.242188 13.6875 -6.910156 13.6875 -5.328125 C 13.6875 -3.753906 13.1875 -2.421875 12.1875 -1.328125 C 11.195312 -0.234375 9.9375 0.3125 8.40625 0.3125 C 6.988281 0.3125 5.828125 -0.128906 4.921875 -1.015625 L 4.921875 5.390625 L 1.25 5.390625 L 1.25 -10.640625 L 4.875 -10.640625 L 4.875 -9.4375 L 4.921875 -9.4375 C 5.828125 -10.445312 6.988281 -10.953125 8.40625 -10.953125 C 9.9375 -10.953125 11.195312 -10.410156 12.1875 -9.328125 Z M 9.078125 -3.53125 C 9.554688 -4 9.796875 -4.597656 9.796875 -5.328125 C 9.796875 -6.066406 9.566406 -6.664062 9.109375 -7.125 C 8.648438 -7.59375 8.046875 -7.828125 7.296875 -7.828125 C 6.578125 -7.828125 5.984375 -7.585938 5.515625 -7.109375 C 5.054688 -6.640625 4.828125 -6.046875 4.828125 -5.328125 C 4.828125 -4.597656 5.066406 -4 5.546875 -3.53125 C 6.023438 -3.0625 6.609375 -2.828125 7.296875 -2.828125 C 8.003906 -2.828125 8.597656 -3.0625 9.078125 -3.53125 Z M 9.078125 -3.53125 "/></g></g></g><g fill="#f1efe7" fill-opacity="1"><g transform="translate(57.722018, 23.78763)"><g><path d="M 1.25 0 L 1.25 -17.84375 L 4.921875 -17.84375 L 4.921875 -9.53125 L 4.953125 -9.53125 C 5.910156 -10.476562 6.929688 -10.953125 8.015625 -10.953125 C 8.535156 -10.953125 9.054688 -10.882812 9.578125 -10.75 C 10.097656 -10.613281 10.59375 -10.398438 11.0625 -10.109375 C 11.539062 -9.816406 11.925781 -9.40625 12.21875 -8.875 C 12.519531 -8.34375 12.671875 -7.722656 12.671875 -7.015625 L 12.671875 0 L 9 0 L 9 -6.015625 C 9 -6.566406 8.820312 -7.050781 8.46875 -7.46875 C 8.125 -7.882812 7.664062 -8.09375 7.09375 -8.09375 C 6.539062 -8.09375 6.039062 -7.878906 5.59375 -7.453125 C 5.144531 -7.023438 4.921875 -6.546875 4.921875 -6.015625 L 4.921875 0 Z M 1.25 0 "/></g></g></g><g clip-path="url(#8a0fc7ce3a)"><path fill="#012030" d="M 36.238281 17.640625 C 36.238281 13.757812 33.089844 10.609375 29.207031 10.609375 C 27.59375 10.609375 26.105469 11.152344 24.917969 12.070312 C 24.691406 12.085938 24.550781 12.109375 24.550781 12.109375 C 24.648438 12.105469 24.886719 12.09375 24.886719 12.09375 C 31.625 11.882812 34.605469 17.4375 35.703125 20.339844 C 35.703125 20.339844 36.117188 21.570312 36.238281 22.050781 C 36.238281 22.050781 36.207031 21.257812 35.847656 19.953125 C 36.101562 19.230469 36.238281 18.449219 36.238281 17.640625 " fill-opacity="1" fill-rule="nonzero"/></g><g clip-path="url(#d2a220e36f)"><path fill="#012030" d="M 27.679688 23.730469 C 27.414062 23.65625 27.046875 22.984375 26.761719 22.375 C 26.507812 21.828125 26.636719 21.183594 27.078125 20.769531 C 28.507812 19.421875 29.535156 17.289062 29.535156 17.289062 C 31.527344 19.609375 28.175781 23.871094 27.679688 23.730469 Z M 29.382812 16.996094 L 29.488281 17.226562 C 29.488281 17.226562 28.121094 19.644531 27.210938 20.269531 C 27.210938 20.269531 26.761719 18.109375 26.585938 17.703125 C 26.585938 17.703125 28.605469 17.304688 29.382812 16.996094 Z M 26.523438 16.476562 C 26.523438 16.476562 28.007812 16.667969 29.304688 16.476562 L 29.382812 16.800781 C 29.382812 16.800781 28.121094 17.234375 26.585938 17.359375 C 26.585938 17.359375 26.480469 17.039062 26.523438 16.476562 Z M 26.984375 15.539062 C 26.984375 15.539062 28.414062 16.175781 29.191406 15.894531 L 29.304688 16.183594 C 29.304688 16.183594 28.546875 16.644531 26.585938 16.132812 C 26.585938 16.132812 26.675781 15.769531 26.984375 15.539062 Z M 29.039062 13.820312 C 29.039062 13.820312 29.039062 15.054688 29.191406 15.804688 C 29.191406 15.804688 28 16.105469 27.167969 15.1875 C 27.167969 15.1875 28.21875 13.800781 29.039062 13.820312 Z M 24.832031 12.136719 C 23.210938 13.425781 22.175781 15.414062 22.175781 17.640625 C 22.175781 21.523438 25.324219 24.671875 29.207031 24.671875 C 31.277344 24.671875 33.136719 23.777344 34.425781 22.355469 C 33.265625 13.652344 26.316406 12.324219 24.832031 12.136719 " fill-opacity="1" fill-rule="nonzero"/></g><g fill="#f1efe7" fill-opacity="1"><g transform="translate(69.745113, 23.990306)"><g><path d="M 3.667969 0 L 3.667969 -4.714844 L 7.570312 -4.714844 C 10.214844 -4.714844 12.113281 -6.589844 12.113281 -9.285156 C 12.113281 -11.890625 10.207031 -13.785156 7.53125 -13.785156 L 1.875 -13.785156 L 1.875 0 Z M 3.667969 -12.171875 L 7.46875 -12.171875 C 9.089844 -12.171875 10.316406 -10.855469 10.316406 -9.273438 C 10.316406 -7.601562 9.101562 -6.335938 7.488281 -6.335938 L 3.667969 -6.335938 Z M 3.667969 -12.171875 "/></g></g></g><g fill="#f1efe7" fill-opacity="1"><g transform="translate(81.190855, 23.990306)"><g><path d="M 3.425781 0 L 3.425781 -4.863281 C 3.425781 -7.359375 4.773438 -8.808594 6.589844 -8.808594 L 7.5 -8.808594 L 7.5 -10.339844 L 6.496094 -10.339844 C 4.996094 -10.339844 3.863281 -9.457031 3.355469 -8.027344 L 3.355469 -10.339844 L 1.671875 -10.339844 L 1.671875 0 Z M 3.425781 0 "/></g></g></g><g fill="#f1efe7" fill-opacity="1"><g transform="translate(87.97511, 23.990306)"><g><path d="M 6.171875 0.292969 C 9.261719 0.292969 11.5625 -2.128906 11.5625 -5.167969 C 11.5625 -8.199219 9.253906 -10.632812 6.171875 -10.632812 C 3.101562 -10.632812 0.800781 -8.1875 0.800781 -5.167969 C 0.800781 -2.128906 3.113281 0.292969 6.171875 0.292969 Z M 6.191406 -1.347656 C 4.136719 -1.347656 2.542969 -2.96875 2.542969 -5.167969 C 2.542969 -7.347656 4.136719 -8.988281 6.191406 -8.988281 C 8.238281 -8.988281 9.820312 -7.347656 9.820312 -5.167969 C 9.820312 -2.96875 8.238281 -1.347656 6.191406 -1.347656 Z M 6.191406 -1.347656 "/></g></g></g><g fill="#f1efe7" fill-opacity="1"><g transform="translate(99.258714, 23.990306)"><g><path d="M 2.65625 -12.355469 C 3.40625 -12.355469 3.863281 -12.851562 3.863281 -13.46875 C 3.863281 -14.078125 3.40625 -14.574219 2.664062 -14.574219 C 1.9375 -14.574219 1.480469 -14.078125 1.480469 -13.46875 C 1.480469 -12.851562 1.9375 -12.355469 2.65625 -12.355469 Z M 0.191406 3.546875 C 2.421875 3.546875 3.527344 2.230469 3.527344 -0.0390625 L 3.527344 -10.339844 L 1.773438 -10.339844 L 1.773438 0.0703125 C 1.773438 1.238281 1.15625 2.085938 0.0117188 2.085938 L -1.054688 2.085938 L -1.054688 3.546875 Z M 0.191406 3.546875 "/></g></g></g><g fill="#f1efe7" fill-opacity="1"><g transform="translate(103.377815, 23.990306)"><g><path d="M 11.167969 -5.421875 C 11.167969 -8.199219 9.039062 -10.632812 6.0625 -10.632812 C 3.070312 -10.632812 0.800781 -8.1875 0.800781 -5.167969 C 0.800781 -2.136719 3.070312 0.285156 6.0625 0.285156 C 8.414062 0.285156 10.257812 -1.214844 10.84375 -3.113281 L 8.886719 -3.113281 C 8.433594 -1.945312 7.410156 -1.335938 6.019531 -1.335938 C 4.316406 -1.335938 2.777344 -2.636719 2.5625 -4.714844 L 11.140625 -4.714844 C 11.160156 -5.089844 11.167969 -5.238281 11.167969 -5.421875 Z M 2.644531 -6.253906 C 3.039062 -8.039062 4.480469 -8.988281 6.03125 -8.988281 C 7.792969 -8.988281 9.285156 -7.722656 9.386719 -6.253906 Z M 2.644531 -6.253906 "/></g></g></g><g fill="#f1efe7" fill-opacity="1"><g transform="translate(114.104069, 23.990306)"><g><path d="M 6.082031 0.292969 C 8.535156 0.292969 10.4375 -1.238281 11.027344 -3.464844 L 9.242188 -3.464844 C 8.707031 -2.046875 7.480469 -1.335938 6.089844 -1.335938 C 4.296875 -1.335938 2.542969 -2.789062 2.542969 -5.167969 C 2.542969 -7.53125 4.289062 -8.988281 6.089844 -8.988281 C 7.488281 -8.988281 8.707031 -8.289062 9.242188 -6.953125 L 11.039062 -6.953125 C 10.417969 -9.089844 8.542969 -10.632812 6.082031 -10.632812 C 3.089844 -10.632812 0.800781 -8.1875 0.800781 -5.167969 C 0.800781 -2.148438 3.089844 0.292969 6.082031 0.292969 Z M 6.082031 0.292969 "/></g></g></g><g fill="#f1efe7" fill-opacity="1"><g transform="translate(124.70872, 23.990306)"><g><path d="M 7.570312 0 L 7.570312 -1.480469 L 6.011719 -1.480469 C 5.089844 -1.480469 4.15625 -1.824219 4.15625 -3.75 L 4.15625 -8.808594 L 7.570312 -8.808594 L 7.570312 -10.339844 L 4.15625 -10.339844 L 4.15625 -13.417969 L 2.414062 -13.410156 L 2.414062 -10.339844 L 0.113281 -10.339844 L 0.113281 -8.808594 L 2.414062 -8.808594 L 2.414062 -3.832031 C 2.414062 -0.609375 4.09375 0 5.664062 0 Z M 7.570312 0 "/></g></g></g></svg>